<?xml version="1.0" standalone="no"?>
<!DOCTYPE svg PUBLIC "-//W3C//DTD SVG 20010904//EN"
 "http://www.w3.org/TR/2001/REC-SVG-20010904/DTD/svg10.dtd">
<svg version="1.0" xmlns="http://www.w3.org/2000/svg"
 width="200.000000pt" height="200.000000pt" viewBox="0 0 200.000000 200.000000"
 preserveAspectRatio="xMidYMid meet">
<metadata>
Created by potrace 1.14, written by Peter Selinger 2001-2017
</metadata>
<g transform="translate(0.000000,200.000000) scale(0.100000,-0.100000)"
fill="#000000" stroke="none">
<path d="M785 1571 c-39 -10 -169 -71 -173 -83 -2 -4 -8 -8 -13 -8 -19 0 -120
-94 -161 -150 -39 -53 -68 -108 -68 -130 0 -11 -4 -20 -9 -20 -21 0 -41 -184
-30 -269 16 -118 21 -141 30 -141 5 0 9 -11 9 -25 0 -14 5 -25 10 -25 6 0 10
-9 10 -20 0 -11 5 -20 10 -20 6 0 10 -7 10 -15 0 -8 5 -15 10 -15 6 0 10 -6
10 -13 0 -17 133 -157 148 -157 7 0 12 -4 12 -8 0 -9 70 -45 76 -39 2 2 -5 13
-16 25 -11 12 -20 26 -20 32 0 5 -4 10 -10 10 -5 0 -10 7 -10 15 0 8 -4 15 -9
15 -4 0 -16 25 -26 56 -27 87 -9 274 28 274 4 0 7 7 7 15 0 8 4 15 9 15 5 0
16 6 23 14 8 7 33 23 56 35 36 18 42 19 42 5 0 -8 -7 -22 -15 -30 -8 -9 -15
-23 -15 -32 1 -24 35 -94 42 -86 4 3 12 -3 19 -13 7 -12 21 -19 38 -17 14 1
18 -1 9 -3 -31 -8 -20 -18 35 -33 36 -10 106 -14 225 -15 130 0 175 -3 181
-13 6 -9 15 -10 33 -3 27 10 68 4 68 -10 0 -5 -14 -6 -31 -2 -30 6 -30 5 -18
-16 8 -11 17 -21 21 -21 5 0 8 -9 8 -20 0 -11 4 -20 9 -20 5 0 8 -34 7 -75
l-1 -75 33 0 c39 0 75 17 67 31 -4 5 3 9 14 9 22 0 37 17 26 28 -4 4 -10 1
-12 -5 -3 -7 -14 -12 -26 -12 -17 1 -18 2 -4 6 9 2 17 8 17 13 0 4 9 10 20 13
11 3 20 1 20 -4 0 -4 14 5 31 22 23 23 30 37 26 55 -3 17 -1 22 6 15 15 -15
39 15 33 41 -3 13 -3 17 0 11 7 -17 26 -17 22 0 -1 6 6 29 16 50 10 20 16 46
13 58 -3 12 0 22 9 26 11 4 14 29 14 114 0 103 -1 109 -21 109 -11 0 -18 4
-14 10 3 5 12 7 20 3 10 -3 15 2 15 16 0 12 -4 21 -10 21 -5 0 -10 13 -10 29
0 37 -27 100 -45 107 -10 4 -13 14 -9 30 5 20 2 24 -17 25 -13 0 -18 3 -11 6
8 3 2 18 -20 49 -34 48 -53 57 -43 22 5 -18 4 -20 -4 -8 -6 8 -11 23 -11 33 0
10 -7 25 -15 33 -8 9 -15 11 -15 5 0 -6 -4 -11 -10 -11 -5 0 -6 7 -3 17 4 11
3 14 -5 9 -8 -4 -12 0 -12 11 0 15 -2 16 -10 3 -9 -14 -11 -13 -14 10 0 6 -5
11 -11 12 -5 1 -19 10 -30 21 -30 28 -115 64 -180 76 -65 12 -362 13 -410 2z
m700 -181 c3 -5 -1 -10 -10 -10 -9 0 -13 5 -10 10 3 6 8 10 10 10 2 0 7 -4 10
-10z m72 -82 c-3 -8 -6 -5 -6 6 -1 11 2 17 5 13 3 -3 4 -12 1 -19z m-47 -115
c-11 -17 -11 -17 -6 0 3 10 7 35 8 55 l1 37 4 -37 c2 -21 -1 -46 -7 -55z m97
-70 c-3 -10 -5 -4 -5 12 0 17 2 24 5 18 2 -7 2 -21 0 -30z m-117 -34 c-11 -38
-26 -55 -17 -19 4 14 7 31 7 38 0 6 4 12 9 12 6 0 6 -12 1 -31z m27 -11 c-3
-7 -5 -2 -5 12 0 14 2 19 5 13 2 -7 2 -19 0 -25z m-90 -60 c-3 -8 -6 -5 -6 6
-1 11 2 17 5 13 3 -3 4 -12 1 -19z m-52 -17 c-3 -6 -11 -11 -16 -11 -5 0 -4 6
3 14 14 16 24 13 13 -3z m18 -26 c-3 -9 -8 -14 -10 -11 -3 3 -2 9 2 15 9 16
15 13 8 -4z m42 -5 c3 -5 1 -10 -4 -10 -6 0 -11 5 -11 10 0 6 2 10 4 10 3 0 8
-4 11 -10z m-655 -73 c0 -5 -7 -4 -15 3 -8 7 -15 20 -15 29 1 13 3 13 15 -3 8
-11 15 -24 15 -29z m-35 -27 c-3 -5 -10 -10 -16 -10 -5 0 -9 5 -9 10 0 6 7 10
16 10 8 0 12 -4 9 -10z m862 -22 c-3 -7 -5 -2 -5 12 0 14 2 19 5 13 2 -7 2
-19 0 -25z m63 28 c0 -11 -19 -15 -25 -6 -3 5 1 10 9 10 9 0 16 -2 16 -4z
m-887 -66 c3 -11 1 -18 -4 -14 -5 3 -9 12 -9 20 0 20 7 17 13 -6z m847 -80 c0
-5 -4 -10 -10 -10 -5 0 -10 5 -10 10 0 6 5 10 10 10 6 0 10 -4 10 -10z m-273
-82 c-3 -8 -6 -5 -6 6 -1 11 2 17 5 13 3 -3 4 -12 1 -19z m203 -48 c0 -13 -1
-13 -10 0 -5 8 -10 22 -10 30 0 13 1 13 10 0 5 -8 10 -22 10 -30z m-96 -55
c-4 -8 -10 -15 -15 -15 -4 0 -6 7 -3 15 4 8 10 15 15 15 4 0 6 -7 3 -15z"/>
<path d="M1349 443 c10 -4 8 -9 -10 -19 -18 -10 -20 -13 -7 -14 9 0 23 7 32
15 8 9 17 14 20 13 2 -2 8 0 12 5 4 4 -8 7 -27 6 -19 0 -28 -3 -20 -6z"/>
</g>
</svg>
